<?xml version="1.0" standalone="no"?>
<!DOCTYPE svg PUBLIC "-//W3C//DTD SVG 20010904//EN"
 "http://www.w3.org/TR/2001/REC-SVG-20010904/DTD/svg10.dtd">
<svg version="1.0" xmlns="http://www.w3.org/2000/svg"
 width="1160.000000pt" height="1160.000000pt" viewBox="0 0 1160.000000 1160.000000"
 preserveAspectRatio="xMidYMid meet">
<metadata>
Created by potrace 1.11, written by Peter Selinger 2001-2013
</metadata>
<g transform="translate(0.000000,1160.000000) scale(0.100000,-0.100000)"
fill="#000000" stroke="none">
<path d="M863 8766 c-8 -12 -7 -1755 0 -1763 8 -7 305 -9 312 -2 2 3 5 165 5
360 1 385 6 434 55 521 80 143 273 182 368 74 60 -68 70 -146 71 -588 1 -287
4 -368 14 -369 6 0 78 -1 160 -2 l147 0 0 459 c-1 520 -2 541 -54 642 -65 127
-204 210 -359 214 -137 4 -229 -28 -352 -120 l-45 -34 -5 309 -5 308 -153 0
c-85 0 -156 -4 -159 -9z"/>
<path d="M180 8752 c-6 -2 -10 -90 -10 -238 l0 -234 -83 0 -83 0 2 -132 c1
-73 2 -136 3 -140 0 -3 27 -6 59 -6 31 0 67 0 80 -1 l22 -1 0 -500 c0 -393 3
-500 13 -501 15 -1 288 -1 302 0 7 1 9 174 8 501 -1 461 0 500 15 501 9 0 53
1 96 2 l79 2 0 135 0 135 -96 3 -96 3 0 112 c0 62 0 168 0 237 l-1 125 -150 0
c-82 0 -154 -1 -160 -3z"/>
<path d="M2817 8309 c-31 -5 -76 -14 -100 -20 -23 -7 -44 -13 -47 -14 -46 -10
-162 -83 -225 -141 -76 -70 -150 -201 -181 -319 -26 -101 -24 -265 5 -368 95
-344 388 -522 781 -474 154 19 265 72 372 180 43 42 78 82 78 87 0 6 -59 39
-132 74 l-132 63 -50 -39 c-75 -56 -145 -80 -246 -83 -132 -3 -231 32 -297
108 -34 39 -70 108 -79 152 l-6 30 517 0 517 0 -5 110 c-6 119 -8 132 -33 209
-53 164 -170 302 -315 374 -126 63 -286 89 -422 71z m182 -279 c72 -13 135
-46 183 -94 38 -38 78 -103 78 -126 0 -7 -113 -10 -346 -10 l-345 0 27 50 c31
57 94 124 139 147 71 38 173 50 264 33z"/>
<path d="M7477 7513 c-3 -7 -2 -3622 2 -3648 1 -11 644 -15 655 -4 3 3 6 324
7 715 0 390 5 740 10 779 29 232 128 416 274 512 113 74 183 94 315 89 186 -7
298 -90 360 -270 17 -50 26 -91 45 -206 13 -77 18 -306 18 -927 0 -492 3 -693
11 -696 6 -2 155 -3 331 -3 l320 1 1 920 c2 882 -1 1004 -27 1105 -96 382
-314 595 -694 676 -61 13 -280 12 -354 -1 -180 -33 -358 -120 -549 -270 l-57
-45 -3 640 -2 640 -329 0 c-182 0 -332 -3 -334 -7z"/>
<path d="M10541 7460 c-3 -8 -6 -228 -5 -487 l1 -473 -169 0 c-127 0 -168 -3
-169 -12 -1 -17 -1 -530 0 -545 1 -10 42 -13 169 -13 l169 0 1 -1007 c0 -555
1 -1022 1 -1038 l1 -30 324 0 c178 0 328 3 332 7 4 5 7 471 7 1038 l0 1030
196 0 196 0 0 283 0 282 -196 3 -196 2 1 485 c1 267 -1 486 -4 486 -3 1 -151
2 -328 3 -280 1 -325 -1 -331 -14z"/>
<path d="M1305 6560 c-168 -24 -345 -105 -524 -240 -40 -30 -82 -61 -92 -69
-18 -13 -19 -9 -19 118 l0 131 -333 0 -332 0 1 -1317 c1 -725 2 -1320 3 -1323
0 -3 149 -5 331 -5 l330 0 1 690 c0 379 3 717 5 750 23 343 197 592 454 652
31 7 94 11 145 9 238 -9 358 -143 400 -451 11 -84 17 -383 18 -1005 l2 -645
330 0 330 0 0 940 c0 517 -3 969 -7 1005 -48 446 -421 768 -888 767 -58 0
-127 -3 -155 -7z"/>
<path d="M5080 6549 c-47 -9 -97 -22 -112 -28 -16 -6 -28 -7 -28 -4 0 4 -5 2
-12 -5 -7 -7 -18 -12 -26 -12 -26 0 -185 -80 -268 -135 -85 -57 -217 -179
-269 -250 -17 -22 -33 -42 -36 -45 -14 -11 -87 -139 -121 -211 -33 -70 -82
-207 -92 -261 -2 -13 -9 -45 -15 -71 -18 -76 -26 -182 -26 -322 1 -139 8 -210
30 -315 3 -14 7 -34 9 -45 11 -55 63 -199 99 -275 98 -208 295 -431 470 -531
154 -89 265 -131 428 -164 138 -28 356 -24 509 9 172 37 296 105 499 273 l27
23 -2 -38 c-1 -20 -5 -82 -8 -137 -9 -160 -38 -251 -110 -341 -119 -148 -325
-226 -601 -228 -254 -1 -432 54 -568 175 l-58 51 -342 0 c-188 0 -352 -1 -364
-1 -22 -1 -22 -2 -7 -43 98 -281 317 -523 581 -644 170 -77 311 -113 553 -140
78 -9 340 -9 433 -1 519 49 899 305 1052 712 27 72 61 198 70 260 3 22 7 51
10 65 16 76 18 253 21 1388 l3 1242 -334 0 -333 0 0 -102 c0 -57 -1 -120 -1
-140 l-1 -38 -82 67 c-187 150 -323 217 -533 262 -116 25 -325 25 -445 0z
m605 -623 c301 -96 487 -368 489 -711 0 -159 -17 -240 -79 -370 -96 -201 -281
-336 -505 -369 -332 -49 -627 97 -766 379 -60 123 -84 234 -79 379 6 207 64
354 200 514 33 40 137 113 200 143 108 51 195 68 335 64 101 -2 140 -8 205
-29z"/>
<path d="M2929 6483 c0 -24 0 -2538 0 -2588 l1 -40 330 0 c323 0 330 0 330 20
1 52 1 2573 1 2598 l-1 27 -330 0 c-307 0 -330 -1 -331 -17z"/>
</g>
</svg>
